Coordinates
version=1
nRows=30
nColumns=33
inDegrees=yes

Units are S.I. units (second, meters, Newtons, ...)
Angles are in degrees.

endheader
time	ground_thorax_rot_x	ground_thorax_rot_y	ground_thorax_rot_z	ground_thorax_tx	ground_thorax_ty	ground_thorax_tz	clav_prot_r	clav_elev_r	scapula_abduction_r	scapula_elevation_r	scapula_upward_rot_r	scapula_winging_r	shoulder_elv_r	plane_of_elev_r	axial_rot_r	elbow_flexion_r	pro_sup_r	wrist_flex_r	wrist_dev_r	clav_prot_l	clav_elev_l	scapula_abduction_l	scapula_elevation_l	scapula_upward_rot_l	scapula_winging_l	shoulder_elv_l	plane_of_elev_l	axial_rot_l	elbow_flexion_l	pro_sup_l	wrist_flex_l	wrist_dev_l	
7.3700	-39.519266	-16.559286	22.702241	-194.672376	820.187032	-5.611901	9.100767	-45.000000	40.301861	-45.000000	-45.000000	2424.429661	-1185.683542	144.896866	180.000000	1812.882795	62.892894	26.728083	11.701564	16.003130	39.544729	-38.040572	-45.000000	-40.380527	-3156.494405	-2808.654593	26.683979	-25.905319	1810.987134	13.602836	6.328559	-19.485511	
7.3800	-39.337475	-17.042228	23.226661	-190.808754	818.831387	-5.598777	9.126664	-45.000000	40.331117	-45.000000	-45.000000	2424.631592	-1185.893908	144.922342	180.000000	1812.641463	62.195955	26.652977	12.040643	16.045016	39.546516	-38.046116	-45.000000	-40.468481	-3156.668147	-2808.791020	26.696405	-26.045305	1810.913380	13.323104	6.569523	-19.406443	
7.3900	-39.138007	-17.542493	23.776634	-186.847603	817.425675	-5.585659	9.164787	-45.000000	40.366621	-45.000000	-45.000000	2424.835443	-1186.126350	144.961222	180.000000	1812.373716	61.515288	26.573484	12.383953	16.080968	39.528950	-38.043310	-45.000000	-40.611219	-3156.857075	-2808.923136	26.715396	-26.162268	1810.837645	13.174868	6.794683	-19.326078	
7.4000	-38.922346	-18.054419	24.350958	-182.795274	815.975893	-5.572497	9.197600	-45.000000	40.401766	-45.000000	-45.000000	2425.043469	-1186.375464	145.012572	180.000000	1812.079991	60.853614	26.488040	12.730189	16.126516	39.503008	-38.033273	-45.000000	-40.796899	-3157.064730	-2809.048643	26.730766	-26.280505	1810.763258	13.151225	7.004963	-19.247357	
7.4100	-38.687599	-18.580142	24.951879	-178.659199	814.488835	-5.559014	9.234689	-45.000000	40.439762	-45.000000	-45.000000	2425.252896	-1186.645218	145.077475	180.000000	1811.758716	60.214232	26.395449	13.077519	16.171760	39.465055	-38.015292	-45.000000	-41.024059	-3157.284102	-2809.175670	26.745308	-26.407264	1810.688180	13.241993	7.197524	-19.170418	
7.4200	-38.436881	-19.111604	25.576510	-174.447708	812.971626	-5.544654	9.253713	-45.000000	40.470328	-45.000000	-45.000000	2425.466123	-1186.927792	145.153654	180.000000	1811.410362	59.594762	26.293309	13.424904	16.237939	39.427366	-37.991678	-45.000000	-41.281243	-3157.520854	-2809.298283	26.747799	-26.562820	1810.618363	13.438012	7.375438	-19.098609	
7.4300	-38.166848	-19.652757	26.228004	-170.170105	811.431488	-5.528498	9.271139	-45.000000	40.495678	-45.000000	-45.000000	2425.679266	-1187.227224	145.242989	180.000000	1811.034428	58.997532	26.180122	13.769177	16.305537	39.386981	-37.956988	-45.000000	-41.557619	-3157.763739	-2809.427641	26.743661	-26.762039	1810.551840	13.727900	7.535169	-19.031412	
7.4400	-37.880298	-20.198246	26.903255	-165.836198	809.875292	-5.509176	9.272911	-45.000000	40.510054	-45.000000	-45.000000	2425.894883	-1187.538028	145.344453	180.000000	1810.632155	58.421679	26.054178	14.107666	16.383992	39.354533	-37.913564	-45.000000	-41.838688	-3158.013778	-2809.562172	26.722740	-27.024928	1810.490749	14.102755	7.680136	-18.971035	
7.4500	-37.572792	-20.755924	27.607257	-161.455979	808.309419	-5.484849	9.280434	-45.000000	40.521642	-45.000000	-45.000000	2426.106945	-1187.864551	145.460922	180.000000	1810.203735	57.871660	25.916735	14.436284	16.451132	39.318619	-37.855900	-45.000000	-42.131244	-3158.264314	-2809.705870	26.695018	-27.342183	1810.428508	14.552341	7.809224	-18.916156	
7.4600	-37.246012	-21.323340	28.340215	-157.039397	806.739723	-5.453331	9.280820	-45.000000	40.525409	-45.000000	-45.000000	2426.316048	-1188.202441	145.591115	180.000000	1809.750382	57.349694	25.768775	14.751503	16.519914	39.280730	-37.786879	-45.000000	-42.438558	-3158.521256	-2809.850354	26.653664	-27.703425	1810.366475	15.070941	7.925970	-18.869004	
7.4700	-36.896409	-21.904387	29.105374	-152.596384	805.171893	-5.412476	9.289647	-45.000000	40.525923	-45.000000	-45.000000	2426.517243	-1188.554573	145.735722	180.000000	1809.271806	56.864516	25.611738	15.048181	16.574063	39.232226	-37.701683	-45.000000	-42.764379	-3158.780538	-2809.998848	26.607597	-28.094495	1810.299929	15.654758	8.029969	-18.829215	
7.4800	-36.524820	-22.495904	29.902189	-148.137105	803.611961	-5.360704	9.305066	-45.000000	40.524162	-45.000000	-45.000000	2426.710554	-1188.918589	145.894522	180.000000	1808.767615	56.425469	25.446681	15.321164	16.615572	39.174582	-37.603704	-45.000000	-43.105482	-3159.041570	-2810.153700	26.554072	-28.509091	1810.227372	16.301365	8.121612	-18.797634	
7.4900	-36.132825	-23.091912	30.726822	-143.672506	802.067027	-5.297664	9.329030	-45.000000	40.518554	-45.000000	-45.000000	2426.892151	-1189.290993	146.065470	180.000000	1808.241994	56.043069	25.275082	15.563869	16.644059	39.105594	-37.490439	-45.000000	-43.463044	-3159.308756	-2810.310919	26.499538	-28.933980	1810.146932	17.009592	8.204651	-18.775056	
7.5000	-35.723778	-23.688739	31.575645	-139.214890	800.545793	-5.224654	9.360576	-45.000000	40.509562	-45.000000	-45.000000	2427.062831	-1189.668635	146.248185	180.000000	1807.699678	55.729617	25.098929	15.769582	16.660626	39.028811	-37.363340	-45.000000	-43.824325	-3159.578041	-2810.473833	26.439363	-29.373922	1810.060979	17.776816	8.276787	-18.761928	
7.5100	-35.304815	-24.276436	32.434121	-134.778149	799.058714	-5.144762	9.402182	-45.000000	40.495291	-45.000000	-45.000000	2427.222878	-1190.045242	146.435833	180.000000	1807.149778	55.496302	24.920567	15.932096	16.658760	38.949385	-37.218316	-44.999999	-44.165352	-3159.848695	-2810.642512	26.372623	-29.847524	1809.971659	18.598579	8.342496	-18.758845	
7.5200	-34.882406	-24.851538	33.291405	-130.377431	797.617494	-5.062439	9.450380	-45.000000	40.479248	-45.000000	-45.000000	2427.375888	-1190.418760	146.626495	180.000000	1806.602337	55.356633	24.743399	16.045180	16.638841	38.875461	-37.055510	-44.999999	-44.461003	-3160.116830	-2810.820343	26.288021	-30.380721	1809.879034	19.468141	8.398079	-18.764216	
7.5300	-34.459053	-25.407099	34.140091	-126.028423	796.234205	-4.982787	9.522073	-45.000000	40.462427	-45.000000	-45.000000	2427.512585	-1190.786469	146.807209	180.000000	1806.065012	55.320250	24.572069	16.107320	16.581111	38.802155	-36.862316	-44.999998	-44.693174	-3160.389398	-2810.998875	26.184533	-30.995095	1809.785667	20.369433	8.449532	-18.776709	
7.5400	-34.042246	-25.941606	34.970028	-121.746319	794.920107	-4.910597	9.597096	-45.000000	40.448191	-45.000000	-45.000000	2427.647154	-1191.145539	146.986535	180.000000	1805.549030	55.396996	24.409212	16.113606	16.508563	38.739942	-36.650081	-44.999996	-44.852961	-3160.656834	-2811.188053	26.054891	-31.693453	1809.689243	21.283816	8.488258	-18.792061	
7.5500	-33.636995	-26.447054	35.773738	-117.545486	793.684941	-4.849625	9.663040	-45.000000	40.432035	-45.000000	-45.000000	2427.784629	-1191.487011	147.168712	180.000000	1805.068562	55.590606	24.256467	16.061009	16.437517	38.696656	-36.425963	-44.999992	-44.945467	-3160.921977	-2811.383233	25.901548	-32.465384	1809.589204	22.192418	8.516093	-18.807975	
7.5600	-33.249747	-26.922516	36.542662	-113.439071	792.536417	-4.802073	9.686676	-45.000000	40.410986	-45.000000	-45.000000	2427.939472	-1191.805203	147.362692	180.000000	1804.634558	55.903802	24.113920	15.948105	16.405969	38.682968	-36.208030	-44.999987	-44.986520	-3161.182971	-2811.583416	25.720493	-33.282172	1809.481407	23.083429	8.529550	-18.821812	
7.5700	-32.868913	-27.373562	37.291002	-109.439713	791.480466	-4.768517	9.716661	-45.000000	40.393824	-45.000000	-45.000000	2428.086581	-1192.103079	147.552640	180.000000	1804.241156	56.329100	23.984980	15.786532	16.366613	38.673787	-35.984883	-44.999976	-44.998287	-3161.443565	-2811.779706	25.526600	-34.133731	1809.364035	23.937123	8.536245	-18.830965	
7.5800	-32.500538	-27.800140	38.009294	-105.559955	790.521455	-4.748024	9.720947	-45.000000	40.376806	-45.000000	-45.000000	2428.240094	-1192.378185	147.746098	180.000000	1803.893560	56.855538	23.866659	15.580415	16.354398	38.674849	-35.772043	-44.999957	-45.000000	-3161.700223	-2811.971285	25.320168	-34.979668	1809.237795	24.741088	8.535148	-18.834457	
7.5900	-32.133175	-28.206942	38.712666	-101.813557	789.662772	-4.738473	9.751925	-45.000000	40.371056	-45.000000	-45.000000	2428.371501	-1192.635542	147.926441	180.000000	1803.580570	57.462659	23.760192	15.346555	16.313314	38.663224	-35.557941	-44.999923	-45.000000	-3161.958076	-2812.151221	25.109270	-35.818667	1809.103373	25.484101	8.535616	-18.832290	
7.6000	-31.769205	-28.596629	39.398392	-98.215141	788.906641	-4.736832	9.784885	-45.000000	40.371982	-45.000000	-45.000000	2428.486290	-1192.876688	148.096463	180.000000	1803.300747	58.126864	23.659960	15.094442	16.266246	38.643705	-35.343578	-44.999861	-45.000000	-3162.226354	-2812.308519	24.881534	-36.623353	1808.965309	26.163058	8.541625	-18.827056	
7.6100	-31.410457	-28.966533	40.060052	-94.780381	788.253948	-4.739424	9.860785	-45.000000	40.380317	-45.000000	-45.000000	2428.569637	-1193.103582	148.239521	180.000000	1803.043940	58.821618	23.565129	14.840362	16.174374	38.602116	-35.118512	-44.999752	-45.000000	-3162.491804	-2812.449316	24.668655	-37.405390	1808.823248	26.773582	8.551751	-18.816792	
7.6200	-31.076136	-29.310105	40.671141	-91.524606	787.703434	-4.742195	9.906795	-45.000000	40.376789	-45.000000	-45.000000	2428.660642	-1193.307946	148.378631	180.000000	1802.824023	59.520982	23.466185	14.583088	16.114023	38.569068	-34.904879	-44.999555	-45.000000	-3162.744141	-2812.579338	24.471101	-38.124062	1808.678585	27.322945	8.557321	-18.802874	
7.6300	-30.768955	-29.623426	41.228265	-88.462379	787.251264	-4.740949	9.926647	-45.000000	40.356837	-45.000000	-45.000000	2428.756526	-1193.486468	148.510040	180.000000	1802.637091	60.195626	23.360571	14.333318	16.081273	38.547118	-34.706633	-44.999205	-45.000000	-3162.977061	-2812.701806	24.302124	-38.778578	1808.528687	27.826141	8.555778	-18.786194	
7.6400	-30.486344	-29.915829	41.739965	-85.605589	786.890466	-4.731634	9.899161	-45.000000	40.317138	-45.000000	-45.000000	2428.865409	-1193.643077	148.644112	180.000000	1802.479634	60.815736	23.242811	14.098162	16.093505	38.542193	-34.527089	-44.998571	-45.000000	-3163.192835	-2812.811801	24.145923	-39.343784	1808.375526	28.296606	8.545180	-18.770138	
7.6500	-30.219806	-30.189056	42.218079	-82.962984	786.611146	-4.710337	9.858183	-45.000000	40.264068	-45.000000	-45.000000	2428.966250	-1193.783002	148.766152	180.000000	1802.334569	61.350231	23.116197	13.894168	16.114176	38.538599	-34.359562	-44.997456	-45.000000	-3163.387390	-2812.914928	24.012637	-39.831316	1808.218293	28.741651	8.527426	-18.755754	
7.6600	-29.958361	-30.456312	42.686715	-80.539029	786.401218	-4.673223	9.794337	-45.000000	40.202420	-45.000000	-45.000000	2429.056277	-1193.915340	148.889161	180.000000	1802.197076	61.771549	22.979084	13.727484	16.148864	38.535413	-34.203928	-44.995399	-45.000000	-3163.566991	-2813.005374	23.876370	-40.221795	1808.063042	29.160872	8.504327	-18.746592	
